name C:\Users\u0101727\Documents\MyRepositories\upper-imu-dc\Results\main_tracking\Case_44\FLX01_orientations_groundFrame.mot
datacolumns 13
datarows 36
range 0.51000000 0.86000000
endheader 
time	radius_imu_[0][0]	radius_imu_[0][1]	radius_imu_[0][2]	radius_imu_[1][0]	radius_imu_[1][1]	radius_imu_[1][2]	radius_imu_[2][0]	radius_imu_[2][1]	radius_imu_[2][2]	radius_imu_x	radius_imu_y	radius_imu_z	
          0.51000000	          0.69014851	         -0.01428115	          0.72352684	         -0.12285583	          0.98297991	          0.13659044	         -0.71316301	         -0.18315718	          0.67664759	         -0.19918673	          0.80889790	          0.02068992	
          0.52000000	          0.68831925	         -0.01925177	          0.72515239	         -0.12316157	          0.98203295	          0.14297733	         -0.71487610	         -0.18772496	          0.67358110	         -0.20916002	          0.81125567	          0.02796195	
          0.53000000	          0.68650310	         -0.02432206	          0.72671998	         -0.12339874	          0.98104601	          0.14940374	         -0.71657954	         -0.19224246	          0.67048982	         -0.21924591	          0.81353494	          0.03541411	
          0.54000000	          0.68470715	         -0.02949082	          0.72822141	         -0.12357041	          0.98001711	          0.15587437	         -0.71826630	         -0.19671492	          0.66738052	         -0.22944827	          0.81572317	          0.04304411	
          0.55000000	          0.68293505	         -0.03475915	          0.72965164	         -0.12367976	          0.97894375	          0.16239598	         -0.71993266	         -0.20114905	          0.66425599	         -0.23977478	          0.81781238	          0.05085283	
          0.56000000	          0.68118695	         -0.04013005	          0.73100884	         -0.12373039	          0.97782289	          0.16897691	         -0.72157823	         -0.20555287	          0.66111488	         -0.25023651	          0.81979922	          0.05884394	
          0.57000000	          0.67946618	         -0.04560660	          0.73228802	         -0.12372621	          0.97665091	          0.17562694	         -0.72319951	         -0.20993579	          0.65795854	         -0.26084549	          0.82167573	          0.06702070	
          0.58000000	          0.67777349	         -0.05119339	          0.73348642	         -0.12367142	          0.97542363	          0.18235710	         -0.72479547	         -0.21430812	          0.65478513	         -0.27161642	          0.82343717	          0.07538856	
          0.59000000	          0.67610684	         -0.05689674	          0.73460350	         -0.12357027	          0.97413630	          0.18917945	         -0.72636762	         -0.21868068	          0.65158947	         -0.28256672	          0.82508211	          0.08395566	
          0.60000000	          0.67446686	         -0.06272338	          0.73563593	         -0.12342659	          0.97278358	          0.19610708	         -0.72791505	         -0.22306476	          0.64836856	         -0.29371430	          0.82660502	          0.09273027	
          0.61000000	          0.67286084	         -0.06867913	          0.73657415	         -0.12324352	          0.97135964	          0.20315384	         -0.72943082	         -0.22747226	          0.64512560	         -0.30507520	          0.82799113	          0.10171806	
          0.62000000	          0.67129139	         -0.07477193	          0.73741239	         -0.12302372	          0.96985811	          0.21033403	         -0.73091247	         -0.23191464	          0.64185868	         -0.31666772	          0.82923132	          0.11092796	
          0.63000000	          0.66976292	         -0.08101000	          0.73814295	         -0.12276900	          0.96827213	          0.21766224	         -0.73235606	         -0.23640317	          0.63856726	         -0.32850948	          0.83031356	          0.12036853	
          0.64000000	          0.66828081	         -0.08740182	          0.73875685	         -0.12248027	          0.96659439	          0.22515299	         -0.73375701	         -0.24094856	          0.63525148	         -0.34061704	          0.83122398	          0.13004793	
          0.65000000	          0.66684702	         -0.09395730	          0.73924765	         -0.12215760	          0.96481714	          0.23282054	         -0.73511399	         -0.24556040	          0.63190784	         -0.35300765	          0.83195248	          0.13997640	
          0.66000000	          0.66546432	         -0.10068647	          0.73960765	         -0.12180005	          0.96293224	          0.24067873	         -0.73642514	         -0.25024735	          0.62853343	         -0.36569707	          0.83248722	          0.15016362	
          0.67000000	          0.66413754	         -0.10759883	          0.73982689	         -0.12140559	          0.96093118	          0.24874073	         -0.73768694	         -0.25501717	          0.62512737	         -0.37869825	          0.83281302	          0.16061728	
          0.68000000	          0.66287125	         -0.11470383	          0.73989508	         -0.12097112	          0.95880517	          0.25701874	         -0.73889627	         -0.25987627	          0.62168853	         -0.39202192	          0.83291439	          0.17134414	
          0.69000000	          0.66166509	         -0.12201208	          0.73980562	         -0.12049269	          0.95654520	          0.26552363	         -0.74005461	         -0.26482888	          0.61821100	         -0.40567874	          0.83278141	          0.18235307	
          0.70000000	          0.66051516	         -0.12953480	          0.73955423	         -0.11996555	          0.95414208	          0.27426476	         -0.74116664	         -0.26987706	          0.61468560	         -0.41967857	          0.83240785	          0.19365410	
          0.71000000	          0.65941640	         -0.13728293	          0.73913694	         -0.11938419	          0.95158651	          0.28324993	         -0.74223812	         -0.27502092	          0.61110234	         -0.43402902	          0.83178810	          0.20525661	
          0.72000000	          0.65836268	         -0.14526697	          0.73854999	         -0.11874243	          0.94886914	          0.29248518	         -0.74327573	         -0.28025855	          0.60745068	         -0.44873528	          0.83091710	          0.21716912	
          0.73000000	          0.65734964	         -0.15349578	          0.73778757	         -0.11803336	          0.94598064	          0.30197476	         -0.74428460	         -0.28558654	          0.60372241	         -0.46379807	          0.82978694	          0.22939668	
          0.74000000	          0.65637175	         -0.16197746	          0.73684424	         -0.11724959	          0.94291176	          0.31172094	         -0.74527086	         -0.29099951	          0.59990885	         -0.47921528	          0.82839055	          0.24194298	
          0.75000000	          0.65541917	         -0.17072034	          0.73571752	         -0.11638360	          0.93965340	          0.32172401	         -0.74624431	         -0.29648954	          0.59599781	         -0.49498411	          0.82672548	          0.25481297	
          0.76000000	          0.65448068	         -0.17973195	          0.73440552	         -0.11542773	          0.93619665	          0.33198234	         -0.74721582	         -0.30204679	          0.59197657	         -0.51109954	          0.82479037	          0.26801071	
          0.77000000	          0.65354677	         -0.18901792	          0.73290439	         -0.11437411	          0.93253282	          0.34249249	         -0.74819461	         -0.30766015	          0.58783506	         -0.52755225	          0.82258127	          0.28153654	
          0.78000000	          0.65261078	         -0.19858157	          0.73120759	         -0.11321463	          0.92865353	          0.35324929	         -0.74918731	         -0.31331769	          0.58356697	         -0.54432777	          0.82009053	          0.29538600	
          0.79000000	          0.65166819	         -0.20842406	          0.72930651	         -0.11194092	          0.92455076	          0.36424597	         -0.75019850	         -0.31900675	          0.57916914	         -0.56140693	          0.81730780	          0.30955015	
          0.80000000	          0.65071432	         -0.21854537	          0.72719241	         -0.11054453	          0.92021681	          0.37547426	         -0.75123284	         -0.32471362	          0.57463926	         -0.57876773	          0.81422292	          0.32401794	
          0.81000000	          0.64974507	         -0.22894408	          0.72485581	         -0.10901694	          0.91564437	          0.38692465	         -0.75229426	         -0.33042395	          0.56997664	         -0.59638507	          0.81082507	          0.33877560	
          0.82000000	          0.64875802	         -0.23961706	          0.72228575	         -0.10734951	          0.91082645	          0.39858659	         -0.75338511	         -0.33612326	          0.56518319	         -0.61423031	          0.80710168	          0.35380574	
          0.83000000	          0.64775310	         -0.25055922	          0.71946925	         -0.10553339	          0.90575637	          0.41044866	         -0.75450555	         -0.34179742	          0.56026414	         -0.63227081	          0.80303782	          0.36908670	
          0.84000000	          0.64673226	         -0.26176369	          0.71639176	         -0.10355950	          0.90042784	          0.42249869	         -0.75565390	         -0.34743270	          0.55522762	         -0.65047034	          0.79861686	          0.38459289	
          0.85000000	          0.64569642	         -0.27322303	          0.71303948	         -0.10141859	          0.89483496	          0.43472366	         -0.75682917	         -0.35301497	          0.55008184	         -0.66879153	          0.79382387	          0.40029815	
          0.86000000	          0.64464473	         -0.28492957	          0.70939997	         -0.09910135	          0.88897231	          0.44710978	         -0.75803172	         -0.35852946	          0.54483441	         -0.68719677	          0.78864650	          0.41617682	
